<?xml version="1.0" encoding="utf-8"?>
<!-- Generator: Adobe Illustrator 24.2.0, SVG Export Plug-In . SVG Version: 6.00 Build 0)  -->
<svg version="1.1" id="Layer_1" xmlns="http://www.w3.org/2000/svg" xmlns:xlink="http://www.w3.org/1999/xlink" x="0px" y="0px"
	 viewBox="0 0 595.3 841.9" style="enable-background:new 0 0 595.3 841.9;" xml:space="preserve">
<style type="text/css">
	.st0{fill:#E6E6E6;}
	.st1{font-family:'BaskOldFace';}
	.st2{font-size:48px;}
	.st3{fill:#E7E5F3;}
	.st4{font-size:110.3733px;}
	.st5{fill:none;}
	.st6{fill:#E01F26;}
	.st7{fill:#FFFFFF;stroke:#000000;stroke-width:1.000000e-02;stroke-miterlimit:10;}
	.st8{font-size:19px;}
</style>
<text transform="matrix(1 0 0 1 182.9094 250.7793)" class="st0 st1 st2">Dail</text>
<text transform="matrix(0.9777 0 0 1 267.9124 291.2678)" class="st3 st1 st4">Y</text>
<rect x="228.2" y="259" class="st5" width="65.7" height="41"/>
<text transform="matrix(1 0 0 1 228.2447 291.8036)" class="st0 st1 st2">Bu</text>
<path class="st6" d="M353.8,291.3L353.8,291.3c-7.7,0-14-6.3-14-14V230c0-7.7,6.3-14,14-14l0,0c7.7,0,14,6.3,14,14v47.3
	C367.8,285,361.5,291.3,353.8,291.3z"/>
<text transform="matrix(3.700000e-03 1 -1 3.700000e-03 346.513 227.5517)" class="st7 st1 st8">MART</text>
<image style="overflow:visible;" width="512" height="512" xlink:href="F:\ALL_PC_MEDIA\DOWNLOADS\shopping-cart.png"  transform="matrix(6.919076e-02 0 0 6.706239e-02 186.1275 255.5789)">
</image>
<rect x="187.8" y="256.3" class="st5" width="58.6" height="8.2"/>
</svg>
